STARTFONT 2.1
FONT -Roboto Medium-Medium-R-Medium--45-45-75-75-c-80-iso10646-1
SIZE 45 75 75
FONTBOUNDINGBOX 26 33 0 0
STARTPROPERTIES 10
FAMILY_NAME "Roboto Medium"
WEIGHT_NAME "Medium"
FONT_VERSION "2.137; 2017"
COPYRIGHT "Copyright 2011 Google Inc. All Rights Reserved."
FOUNDRY "FontForge"
FONT_ASCENT 33
FONT_DESCENT 12
POINT_SIZE 45
X_HEIGHT 24
CAP_HEIGHT 33
ENDPROPERTIES
CHARS 12
STARTCHAR U+002E
ENCODING 46
SWIDTH 500 0
DWIDTH 13 0
BBX 6 6 3 0
BITMAP
78
FC
FC
FC
FC
78
ENDCHAR
STARTCHAR U+0030
ENCODING 48
SWIDTH 1000 0
DWIDTH 26 0
BBX 22 33 2 0
BITMAP
01FE00
07FF80
0FFFC0
1FFFE0
3FFFF0
3F87F0
7E01F8
7E01F8
7C00F8
7C00F8
FC00FC
FC00FC
F8007C
F8007C
F8007C
F8007C
F8007C
F8007C
F8007C
F8007C
F8007C
FC00FC
FC00FC
7C00F8
7C00F8
7E01F8
7E01F8
3F87F0
3FFFF0
1FFFE0
0FFFC0
07FF80
01FE00
ENDCHAR
STARTCHAR U+0031
ENCODING 49
SWIDTH 1000 0
DWIDTH 26 0
BBX 13 33 4 0
BITMAP
01F8
03F8
07F8
0FF8
1FF8
3FF8
7EF8
FCF8
F8F8
70F8
20F8
00F8
00F8
00F8
00F8
00F8
00F8
00F8
00F8
00F8
00F8
00F8
00F8
00F8
00F8
00F8
00F8
00F8
00F8
00F8
00F8
00F8
00F8
ENDCHAR
STARTCHAR U+0032
ENCODING 50
SWIDTH 1000 0
DWIDTH 26 0
BBX 22 33 2 0
BITMAP
03FE00
0FFF80
1FFFC0
7FFFE0
FFFFF0
7E03F0
3801F8
1000F8
0000F8
0000F8
0000F8
0000F8
0001F8
0001F0
0003F0
0007E0
000FE0
001FC0
003F80
007F00
00FE00
01FC00
03F800
07F000
0FE000
1FC000
3F8000
7F0000
FFFFFC
FFFFFC
FFFFFC
FFFFFC
FFFFFC
ENDCHAR
STARTCHAR U+0033
ENCODING 51
SWIDTH 1000 0
DWIDTH 26 0
BBX 22 33 2 0
BITMAP
03FE00
1FFF80
7FFFE0
FFFFF0
7F0FF0
3803F8
1001F8
0001F8
0000F8
0000F8
0001F8
0001F0
0003E0
001FC0
07FF80
07FE00
07FFC0
07FFE0
000FF0
0001F8
0000F8
0000FC
0000FC
0000FC
0000FC
0000FC
0001FC
0003F8
FC0FF8
FFFFF0
FFFFE0
FFFF80
0FFC00
ENDCHAR
STARTCHAR U+0034
ENCODING 52
SWIDTH 1000 0
DWIDTH 26 0
BBX 25 33 1 0
BITMAP
0001F000
0003F000
0007F000
0007F000
000FF000
001FF000
003FF000
003DF000
007DF000
00F9F000
00F1F000
01F1F000
03E1F000
03C1F000
07C1F000
0F81F000
0F01F000
1F01F000
3E01F000
3C01F000
7C01F000
F801F000
FFFFFF80
FFFFFF80
FFFFFF80
FFFFFF80
0001F000
0001F000
0001F000
0001F000
0001F000
0001F000
0001F000
ENDCHAR
STARTCHAR U+0035
ENCODING 53
SWIDTH 1000 0
DWIDTH 26 0
BBX 21 33 3 0
BITMAP
3FFFE0
3FFFE0
3FFFE0
3FFFE0
3FFFE0
3E0000
3E0000
3E0000
7E0000
7E0000
7C0000
7C0000
7FF800
7FFE00
7FFF80
7FFFC0
7C3FE0
000FF0
0003F0
0001F8
0001F8
0000F8
0000F8
0000F8
0001F8
0001F0
0003F0
C007F0
FC3FE0
FFFFC0
FFFF80
FFFF00
1FF800
ENDCHAR
STARTCHAR U+0036
ENCODING 54
SWIDTH 1000 0
DWIDTH 26 0
BBX 22 33 2 0
BITMAP
001FF0
00FFF0
03FFF0
07FFF0
0FFC00
1FC000
1F8000
3F0000
3E0000
7E0000
7C0000
7C0000
7C3F00
F8FFE0
F9FFF0
FBFFF8
FF83F8
FF00FC
FE00FC
FE007C
FC007C
FC007C
FC007C
7C007C
7C007C
7E007C
3E00FC
3F01F8
1FC7F8
1FFFF0
0FFFE0
03FFC0
00FE00
ENDCHAR
STARTCHAR U+0037
ENCODING 55
SWIDTH 1000 0
DWIDTH 26 0
BBX 22 33 2 0
BITMAP
FFFFFC
FFFFFC
FFFFFC
FFFFFC
FFFFFC
0000FC
0000FC
0001F8
0001F8
0003F0
0003F0
0007E0
0007E0
000FC0
000FC0
001F80
001F80
003F00
003F00
007E00
007E00
00FC00
00FC00
01F800
01F800
03F000
03F000
07E000
07E000
0FC000
0FC000
1F8000
1F8000
ENDCHAR
STARTCHAR U+0038
ENCODING 56
SWIDTH 1000 0
DWIDTH 26 0
BBX 22 33 2 0
BITMAP
01FE00
07FF80
1FFFE0
3FFFF0
3F03F0
7E01F8
7C00F8
7C00F8
7C00F8
7C00F8
7E01F8
3F03F0
1FCFE0
0FFFC0
07FF80
01FE00
07FF80
1FFFE0
3FCFF0
7F03F8
7C00F8
FC00FC
F8007C
F8007C
F8007C
F8007C
F8007C
7C00F8
7E01F8
3FFFF0
1FFFE0
0FFFC0
01FE00
ENDCHAR
STARTCHAR U+0039
ENCODING 57
SWIDTH 1000 0
DWIDTH 26 0
BBX 22 33 2 0
BITMAP
01FC00
07FF80
1FFFC0
3FFFE0
3F8FF0
7E03F0
7C01F8
FC00F8
F800FC
F8007C
F8007C
F8007C
F8007C
F800FC
FC00FC
7E01FC
7F07FC
3FFFFC
1FFF7C
0FFE7C
03F87C
000078
0000F8
0000F8
0001F8
0001F0
0003F0
000FE0
007FC0
3FFF80
3FFF00
3FFC00
3FE000
ENDCHAR
STARTCHAR U+007F
ENCODING 127
SWIDTH 1000 0
DWIDTH 26 0
BBX 12 4 7 12
BITMAP
FFF0
FFF0
FFF0
FFF0
ENDCHAR
ENDFONT
