STARTFONT 2.1
FONT -Roboto Medium-Medium-R-Medium--45-45-75-75-c-80-iso10646-1
SIZE 45 75 75
FONTBOUNDINGBOX 25 33 0 0
STARTPROPERTIES 10
FAMILY_NAME "Roboto Medium"
WEIGHT_NAME "Medium"
FONT_VERSION "2.137; 2017"
COPYRIGHT "Copyright 2011 Google Inc. All Rights Reserved."
FOUNDRY "FontForge"
FONT_ASCENT 33
FONT_DESCENT 12
POINT_SIZE 45
X_HEIGHT 24
CAP_HEIGHT 33
ENDPROPERTIES
CHARS 15
STARTCHAR U+0000
ENCODING 0
SWIDTH 0 0
DWIDTH 0 0
BBX 0 0 0 0
BITMAP
ENDCHAR
STARTCHAR U+0002
ENCODING 2
SWIDTH 0 0
DWIDTH 0 0
BBX 0 0 0 0
BITMAP
ENDCHAR
STARTCHAR U+000D
ENCODING 13
SWIDTH 440 0
DWIDTH 11 0
BBX 0 0 0 0
BITMAP
ENDCHAR
STARTCHAR U+002E
ENCODING 46
SWIDTH 520 0
DWIDTH 13 0
BBX 6 6 3 0
BITMAP
78
FC
FC
FC
FC
78
ENDCHAR
STARTCHAR U+0030
ENCODING 48
SWIDTH 1040 0
DWIDTH 26 0
BBX 22 33 2 0
BITMAP
01FE00
07FF80
0FFFC0
1FFFE0
3FFFF0
3F87F0
7E01F8
7E01F8
7C00F8
7C00F8
FC00FC
FC00FC
FC00FC
FC00FC
FC00FC
FC00FC
FC00FC
FC00FC
FC00FC
FC00FC
FC00FC
FC00FC
FC00FC
7C00F8
7C00F8
7E01F8
7E01F8
3F87F0
3FFFF0
1FFFE0
0FFFC0
07FF80
01FE00
ENDCHAR
STARTCHAR U+0031
ENCODING 49
SWIDTH 1040 0
DWIDTH 26 0
BBX 13 33 4 0
BITMAP
0038
00F8
03F8
0FF8
3FF8
FFF8
FFF8
FCF8
F0F8
C0F8
00F8
00F8
00F8
00F8
00F8
00F8
00F8
00F8
00F8
00F8
00F8
00F8
00F8
00F8
00F8
00F8
00F8
00F8
00F8
00F8
00F8
00F8
00F8
ENDCHAR
STARTCHAR U+0032
ENCODING 50
SWIDTH 1040 0
DWIDTH 26 0
BBX 22 33 2 0
BITMAP
01FE00
07FF80
0FFFC0
1FFFE0
3FFFF0
3F07F0
7E03F8
7C01F8
F800F8
F800F8
0000F8
0000F8
0001F8
0001F0
0003F0
0007E0
000FE0
001FC0
003F80
007F00
00FE00
01FC00
03F800
07F000
0FE000
1FC000
3F8000
7F0000
FFFFFC
FFFFFC
FFFFFC
FFFFFC
FFFFFC
ENDCHAR
STARTCHAR U+0033
ENCODING 51
SWIDTH 1040 0
DWIDTH 26 0
BBX 21 33 2 0
BITMAP
03FE00
0FFF80
1FFFC0
3FFFE0
7FFFF0
7E03F0
FC01F8
F800F8
F800F8
0000F8
0000F8
0000F8
0001F0
0003F0
01FFE0
01FFC0
01FF00
01FFC0
01FFE0
0003F0
0001F0
0000F8
0000F8
0000F8
F800F8
F800F8
FC01F8
7E03F0
7FFFF0
3FFFE0
1FFFC0
0FFF80
03FE00
ENDCHAR
STARTCHAR U+0034
ENCODING 52
SWIDTH 1040 0
DWIDTH 26 0
BBX 24 33 1 0
BITMAP
0003F0
0007F0
0007F0
000FF0
001FF0
001FF0
003FF0
007FF0
007FF0
00FBF0
01FBF0
01F3F0
03E3F0
07E3F0
07C3F0
0F83F0
1F83F0
1F03F0
3E03F0
7E03F0
7C03F0
FFFFFF
FFFFFF
FFFFFF
FFFFFF
FFFFFF
0003F0
0003F0
0003F0
0003F0
0003F0
0003F0
0003F0
ENDCHAR
STARTCHAR U+0035
ENCODING 53
SWIDTH 1040 0
DWIDTH 26 0
BBX 21 33 3 0
BITMAP
3FFFF0
3FFFF0
3FFFF0
3FFFF0
3FFFF0
3E0000
3E0000
3E0000
7E0000
7E0000
7C0000
7C7C00
7DFF00
7FFFC0
7FFFE0
7FFFF0
7F07F0
1C03F8
0001F8
0001F8
0000F8
0000F8
0000F8
0000F8
F800F8
F801F8
FC01F8
7E03F0
7FFFF0
3FFFE0
1FFFC0
0FFF80
03FE00
ENDCHAR
STARTCHAR U+0036
ENCODING 54
SWIDTH 1040 0
DWIDTH 26 0
BBX 21 33 3 0
BITMAP
001F00
00FF00
03FF00
07FF00
0FFF00
1FF000
3FC000
3F0000
7E0000
7C0000
7C0000
F87E00
F9FF80
FFFFC0
FFFFE0
FFFFF0
FF07F0
FE03F8
FC01F8
F801F8
F800F8
F800F8
F800F8
F800F8
FC01F8
7C01F8
7E03F0
7F07F0
3FFFE0
1FFFE0
0FFFC0
07FF00
01FC00
ENDCHAR
STARTCHAR U+0037
ENCODING 55
SWIDTH 1040 0
DWIDTH 26 0
BBX 22 33 2 0
BITMAP
FFFFFC
FFFFFC
FFFFFC
FFFFFC
FFFFFC
0000FC
0000FC
0001F8
0001F8
0003F0
0003F0
0007E0
0007E0
000FC0
000FC0
001F80
001F80
003F00
003F00
007E00
007E00
00FC00
00FC00
01F800
01F800
03F000
03F000
07E000
07E000
0FC000
0FC000
1F8000
1F8000
ENDCHAR
STARTCHAR U+0038
ENCODING 56
SWIDTH 1040 0
DWIDTH 26 0
BBX 22 33 2 0
BITMAP
01FE00
07FF80
0FFFC0
1FFFE0
3FFFF0
3F03F0
7E01F8
7C00F8
7C00F8
7C00F8
7C00F8
7C00F8
3E01F0
3F03F0
1FFFE0
0FFFC0
07FF80
0FFFC0
3FFFF0
7E01F8
7C00F8
F8007C
F8007C
F8007C
F8007C
F8007C
FC00FC
7E01F8
7FFFF8
3FFFF0
1FFFE0
0FFFC0
03FF00
ENDCHAR
STARTCHAR U+0039
ENCODING 57
SWIDTH 1040 0
DWIDTH 26 0
BBX 21 33 2 0
BITMAP
01FC00
07FF00
1FFF80
3FFFC0
3FFFE0
7F07F0
7E03F0
FC01F0
FC01F8
F800F8
F800F8
F800F8
F800F8
FC00F8
FC01F8
FE03F8
7F07F8
7FFFF8
3FFFF8
1FFFF8
0FFCF8
03F0F8
0001F0
0001F0
0003F0
0007E0
001FE0
007FC0
07FF80
07FF00
07FE00
07F800
07C000
ENDCHAR
STARTCHAR U+007F
ENCODING 127
SWIDTH 1040 0
DWIDTH 26 0
BBX 12 4 7 12
BITMAP
FFF0
FFF0
FFF0
FFF0
ENDCHAR
ENDFONT
