STARTFONT 2.1
FONT -Roboto Medium-Medium-R-Medium--25-25-75-75-c-80-iso10646-1
SIZE 25 75 75
FONTBOUNDINGBOX 13 18 0 0
STARTPROPERTIES 10
FAMILY_NAME "Roboto Medium"
WEIGHT_NAME "Medium"
FONT_VERSION "2.137; 2017"
COPYRIGHT "Copyright 2011 Google Inc. All Rights Reserved."
FOUNDRY "FontForge"
FONT_ASCENT 19
FONT_DESCENT 6
POINT_SIZE 25
X_HEIGHT 12
CAP_HEIGHT 18
ENDPROPERTIES
CHARS 12
STARTCHAR U+002E
ENCODING 46
SWIDTH 538 0
DWIDTH 7 0
BBX 3 3 2 0
BITMAP
E0
E0
E0
ENDCHAR
STARTCHAR U+0030
ENCODING 48
SWIDTH 1076 0
DWIDTH 14 0
BBX 12 18 1 0
BITMAP
1F80
7FE0
70E0
E070
E070
E070
E070
E070
E070
E070
E070
E070
E070
E070
E070
70E0
7FE0
1F80
ENDCHAR
STARTCHAR U+0031
ENCODING 49
SWIDTH 1076 0
DWIDTH 14 0
BBX 7 18 2 0
BITMAP
06
1E
7E
FE
CE
0E
0E
0E
0E
0E
0E
0E
0E
0E
0E
0E
0E
0E
ENDCHAR
STARTCHAR U+0032
ENCODING 50
SWIDTH 1076 0
DWIDTH 14 0
BBX 12 18 1 0
BITMAP
1F80
7FE0
70E0
E070
E070
0070
00E0
00E0
01C0
03C0
0780
0F00
1E00
3C00
7800
F000
FFF0
FFF0
ENDCHAR
STARTCHAR U+0033
ENCODING 51
SWIDTH 1076 0
DWIDTH 14 0
BBX 12 18 1 0
BITMAP
1F80
7FE0
70E0
E070
E070
0070
0070
00E0
07C0
07E0
00F0
0070
0070
E070
E070
70E0
7FE0
1F80
ENDCHAR
STARTCHAR U+0034
ENCODING 52
SWIDTH 1076 0
DWIDTH 14 0
BBX 12 18 1 0
BITMAP
03C0
03C0
07C0
07C0
0FC0
0DC0
1DC0
19C0
39C0
31C0
71C0
61C0
FFF0
FFF0
01C0
01C0
01C0
01C0
ENDCHAR
STARTCHAR U+0035
ENCODING 53
SWIDTH 1076 0
DWIDTH 14 0
BBX 12 18 1 0
BITMAP
3FF0
3FF0
3800
3800
7000
7000
7F80
7FE0
70E0
0070
0070
0070
0070
E070
E070
70E0
7FE0
1F80
ENDCHAR
STARTCHAR U+0036
ENCODING 54
SWIDTH 1076 0
DWIDTH 14 0
BBX 12 18 1 0
BITMAP
0380
0F80
1E00
3800
7000
7000
EF80
FFE0
F8E0
F070
E070
E070
E070
E070
E070
70E0
7FE0
1F80
ENDCHAR
STARTCHAR U+0037
ENCODING 55
SWIDTH 1076 0
DWIDTH 14 0
BBX 12 18 1 0
BITMAP
FFF0
FFF0
0070
00E0
00E0
00E0
01C0
01C0
0380
0380
0380
0700
0700
0E00
0E00
0E00
1C00
1C00
ENDCHAR
STARTCHAR U+0038
ENCODING 56
SWIDTH 1076 0
DWIDTH 14 0
BBX 12 18 1 0
BITMAP
1F80
7FE0
70E0
E070
E070
E070
6070
70E0
3FC0
3FC0
70E0
E070
E070
E070
E070
70E0
7FE0
1F80
ENDCHAR
STARTCHAR U+0039
ENCODING 57
SWIDTH 1076 0
DWIDTH 14 0
BBX 12 18 1 0
BITMAP
1F80
7FE0
70E0
E070
E070
E070
E070
E070
E0F0
71F0
7FF0
1F70
00E0
00E0
01C0
0780
1F00
1C00
ENDCHAR
STARTCHAR U+007F
ENCODING 127
SWIDTH 1076 0
DWIDTH 14 0
BBX 6 3 4 6
BITMAP
FC
FC
FC
ENDCHAR
ENDFONT
