STARTFONT 2.1
FONT -Regular-Regular-R-Regular--7-7-75-75-c-80-iso10646-1
SIZE 7 75 75
FONTBOUNDINGBOX 11 8 0 -2
STARTPROPERTIES 10
FAMILY_NAME "Regular"
WEIGHT_NAME "Regular"
FONT_VERSION "Version 1.0"
COPYRIGHT "(C) 2023-2025 Gissio"
FOUNDRY "Made with Bits'n'Picas by Kreative Software"
FONT_ASCENT 6
FONT_DESCENT 1
POINT_SIZE 7
X_HEIGHT 4
CAP_HEIGHT 5
ENDPROPERTIES
CHARS 13
STARTCHAR U+0030
ENCODING 48
SWIDTH 1000 0
DWIDTH 11 0
BBX 11 4 0 0
BITMAP
FFC0
8060
8060
FFC0
ENDCHAR
STARTCHAR U+0031
ENCODING 49
SWIDTH 1000 0
DWIDTH 11 0
BBX 11 4 0 0
BITMAP
FFC0
E060
E060
FFC0
ENDCHAR
STARTCHAR U+0032
ENCODING 50
SWIDTH 1000 0
DWIDTH 11 0
BBX 11 4 0 0
BITMAP
FFC0
F860
F860
FFC0
ENDCHAR
STARTCHAR U+0033
ENCODING 51
SWIDTH 1000 0
DWIDTH 11 0
BBX 11 4 0 0
BITMAP
FFC0
FE60
FE60
FFC0
ENDCHAR
STARTCHAR U+0034
ENCODING 52
SWIDTH 1000 0
DWIDTH 11 0
BBX 11 4 0 0
BITMAP
FFC0
FFE0
FFE0
FFC0
ENDCHAR
STARTCHAR U+0035
ENCODING 53
SWIDTH 1000 0
DWIDTH 11 0
BBX 11 6 0 -2
BITMAP
FFC0
8060
A060
77C0
2000
4000
ENDCHAR
STARTCHAR U+0036
ENCODING 54
SWIDTH 1000 0
DWIDTH 11 0
BBX 11 6 0 -2
BITMAP
FFC0
C060
A060
77C0
2000
4000
ENDCHAR
STARTCHAR U+0037
ENCODING 55
SWIDTH 1000 0
DWIDTH 11 0
BBX 11 6 0 -2
BITMAP
FFC0
D860
A860
77C0
2000
4000
ENDCHAR
STARTCHAR U+0038
ENCODING 56
SWIDTH 1000 0
DWIDTH 11 0
BBX 11 6 0 -2
BITMAP
FFC0
DE60
AE60
77C0
2000
4000
ENDCHAR
STARTCHAR U+0039
ENCODING 57
SWIDTH 1000 0
DWIDTH 11 0
BBX 11 6 0 -2
BITMAP
FFC0
DFE0
AFE0
77C0
2000
4000
ENDCHAR
STARTCHAR U+003A
ENCODING 58
SWIDTH 818 0
DWIDTH 9 0
BBX 7 6 1 -1
BITMAP
38
7C
7C
7C
FE
10
ENDCHAR
STARTCHAR U+003B
ENCODING 59
SWIDTH 818 0
DWIDTH 9 0
BBX 9 7 0 -1
BITMAP
FF80
E380
C180
C180
C180
8080
F780
ENDCHAR
STARTCHAR U+003C
ENCODING 60
SWIDTH 818 0
DWIDTH 9 0
BBX 7 7 1 -1
BITMAP
38
44
44
FE
EE
FE
FE
ENDCHAR
ENDFONT
