#define dotted8_width 128
#define dotted8_height 1
static const unsigned char dotted8_bits[] = {
   0x10, 0x10, 0x10, 0x10, 0x10, 0x10, 0x10, 0x10, 0x10, 0x10, 0x10, 0x10,
   0x10, 0x10, 0x10, 0x10 };
