#define dotted2_width 128
#define dotted2_height 1
static const unsigned char dotted2_bits[] = {
   0x55, 0x55, 0x55, 0x55, 0x55, 0x55, 0x55, 0x55, 0x55, 0x55, 0x55, 0x55,
   0x55, 0x55, 0x55, 0x55 };
