#define dotted4_width 128
#define dotted4_height 1
static const unsigned char dotted4_bits[] = {
   0x44, 0x44, 0x44, 0x44, 0x44, 0x44, 0x44, 0x44, 0x44, 0x44, 0x44, 0x44,
   0x44, 0x44, 0x44, 0x44 };
